<?xml version="1.0" encoding="UTF-8"?>
<svg width="22px" height="22px" viewBox="0 0 22 22" version="1.1" xmlns="http://www.w3.org/2000/svg" xmlns:xlink="http://www.w3.org/1999/xlink">
    <title>5-1</title>
    <g id="Report" stroke="none" stroke-width="1" fill="none" fill-rule="evenodd">
        <g id="5-1" transform="translate(1.000000, 1.000000)" fill-rule="nonzero">
            <g id="1835948">
                <path d="M3.51760863,15.4667664 C3.23760984,15.4667664 2.96844484,15.5366516 2.72964477,15.6678772 C1.4717102,14.0553284 0.78125,12.0521545 0.78125,10 C0.78125,4.91668703 4.91668703,0.78125 10,0.78125 C10.6179809,0.78125 11.2356567,0.84274293 11.8359375,0.964050313 C12.0471191,1.00677492 12.253418,0.870056172 12.2961426,0.658569336 C12.3388672,0.4470825 12.2021484,0.241088867 11.9906616,0.19821168 C11.3395691,0.0666808984 10.6698609,0 10,0 C7.32894898,0 4.81765746,1.04019164 2.92892457,2.92892457 C1.04019164,4.81765746 0,7.32894898 0,10 C0,12.2468567 0.762939453,14.4395447 2.15194703,16.1973572 C1.97311402,16.4645386 1.87698363,16.7785645 1.87698363,17.1073914 C1.87698363,17.5456238 2.04772949,17.9576111 2.35763551,18.2673645 C2.66738891,18.5772705 3.07937621,18.7480164 3.51760863,18.7480164 C3.95584105,18.7480164 4.36782836,18.5772705 4.67773437,18.2673645 C4.98764039,17.9576111 5.15823363,17.5454712 5.15823363,17.1072388 C5.15823363,16.6691589 4.98764039,16.2570191 4.67773437,15.9472656 C4.36782836,15.6373596 3.95584105,15.4667664 3.51760863,15.4667664 Z M4.12521363,17.7149963 C3.9630127,17.8773498 3.74710082,17.9667664 3.51760863,17.9667664 C3.28811645,17.9667664 3.07235719,17.8773498 2.91000367,17.7149963 C2.74765016,17.5526428 2.65823363,17.3368836 2.65823363,17.1073914 C2.65823363,16.8777466 2.74765016,16.6619873 2.91000367,16.4996338 C3.07220461,16.3372803 3.28811645,16.2480164 3.51760863,16.2480164 C3.74710082,16.2480164 3.96286012,16.3374329 4.12521363,16.4996338 C4.28756715,16.6619873 4.37698363,16.8777466 4.37698363,17.1073914 C4.37698363,17.3368836 4.28756715,17.5526428 4.12521363,17.7149963 L4.12521363,17.7149963 Z" id="Shape" stroke="#FFFFFF" stroke-width="0.1" fill="#093238"></path>
                <path d="M17.8477478,3.80218508 C18.2723999,3.16513063 18.2041931,2.29415895 17.6425171,1.73248289 C17.3326111,1.42272949 16.9206238,1.25198363 16.4823914,1.25198363 C16.0441589,1.25198363 15.6321716,1.42272949 15.3222656,1.73248289 C15.0123596,2.04238891 14.8417664,2.45437621 14.8417664,2.89260863 C14.8417664,3.33084105 15.0123596,3.74282836 15.3222656,4.05273438 C15.6321716,4.36264039 16.0441589,4.53323363 16.4823914,4.53323363 C16.7623902,4.53323363 17.0315552,4.4633484 17.2703552,4.33212281 C18.5282898,5.94482422 19.21875,7.94784547 19.21875,10 C19.21875,15.083313 15.083313,19.21875 10,19.21875 C9.38812258,19.21875 8.77624512,19.1584778 8.18161012,19.0394592 C7.97012328,18.9971924 7.76428223,19.1343689 7.72186281,19.3458557 C7.67959594,19.5574951 7.81677246,19.7631836 8.0282593,19.805603 C8.67324828,19.9345398 9.33670043,20 10,20 C12.671051,20 15.1823425,18.9598084 17.0710754,17.0710754 C18.9598084,15.1823425 20,12.671051 20,10 C20,7.7529907 19.236908,5.56015016 17.8477478,3.80218508 Z M15.8747864,3.50036621 C15.7124329,3.3380127 15.6230164,3.12225344 15.6230164,2.89260863 C15.6230164,2.66311645 15.7124329,2.44735719 15.8747864,2.28500367 C16.0369873,2.12265016 16.2528992,2.03323363 16.4823914,2.03323363 C16.7118836,2.03323363 16.9277954,2.12265016 17.0901489,2.28500367 C17.4250793,2.62008668 17.4250793,3.1652832 17.0901489,3.50036621 C16.9277954,3.66256715 16.7118836,3.75198363 16.4823914,3.75198363 C16.2527466,3.75198363 16.0369873,3.66256715 15.8747864,3.50036621 Z" id="Shape" stroke="#FFFFFF" stroke-width="0.1" fill="#093238"></path>
                <path d="M13.5968018,1.47735594 C13.699646,1.47735594 13.800354,1.43554687 13.8729859,1.36291504 C13.9456177,1.28982543 13.9874268,1.18911742 13.9874268,1.0862732 C13.9874268,0.984039297 13.9457703,0.883178711 13.8729859,0.810089102 C13.800354,0.737457266 13.699646,0.695648203 13.5968018,0.695648203 C13.4936523,0.695648203 13.3934021,0.737457266 13.3207703,0.810089102 C13.2479859,0.883178711 13.2061768,0.983581562 13.2061768,1.0862732 C13.2061768,1.18942262 13.2479859,1.28982543 13.3207703,1.36291504 C13.3934021,1.43554687 13.4936523,1.47735594 13.5968018,1.47735594 Z" id="Path" stroke="#FFFFFF" stroke-width="0.1" fill="#093238"></path>
                <path d="M6.42028809,18.5296631 C6.31759645,18.5296631 6.21673586,18.5714722 6.14410398,18.644104 C6.07147219,18.7167359 6.02966309,18.8175964 6.02966309,18.9202881 C6.02966309,19.0234375 6.07147219,19.1238403 6.14410398,19.1964722 C6.21673586,19.269104 6.31759645,19.3109131 6.42028809,19.3109131 C6.52297973,19.3109131 6.62384031,19.269104 6.69647219,19.1964722 C6.76910398,19.1238403 6.81091309,19.0229797 6.81091309,18.9202881 C6.81091309,18.8175964 6.76910398,18.7167359 6.69647219,18.644104 C6.62384031,18.5714722 6.52297973,18.5296631 6.42028809,18.5296631 Z" id="Path" stroke="#FFFFFF" stroke-width="0.5" fill="#373737"></path>
                <path d="M15.2921308,9.51347467 C15.717571,9.21451671 15.9992814,8.71721164 15.9992814,8.15666547 C15.9992814,7.23966942 15.2576356,6.49802372 14.3406396,6.49802372 C13.4236436,6.49802372 12.6819978,7.23966942 12.6819978,8.15666547 C12.6819978,8.71721164 12.9608336,9.21451671 13.3891484,9.51347467 C13.0240747,9.63995688 12.6906216,9.83542939 12.4089112,10.0883938 C12.0208408,9.75781531 11.5637801,9.50485088 11.0636004,9.3553719 C11.6701401,8.98742364 12.0783327,8.31764283 12.0783327,7.55587496 C12.0783327,6.39453827 11.1383399,5.45454545 9.97700323,5.45454545 C8.81566655,5.45454545 7.87567373,6.39741286 7.87567373,7.55587496 C7.87567373,8.31764283 8.28099174,8.98742364 8.89040604,9.3553719 C8.39597557,9.50485088 7.94466403,9.75494071 7.5594682,10.07977 C7.27775782,9.8325548 6.9500539,9.63995688 6.59072943,9.51634926 C7.0161696,9.2173913 7.29787999,8.72008624 7.29787999,8.15954006 C7.29787999,7.24254402 6.55623428,6.50089831 5.63923823,6.50089831 C4.72224218,6.50089831 3.98059648,7.24254402 3.98059648,8.15954006 C3.98059648,8.72008624 4.25943227,9.2173913 4.68774704,9.51634926 C3.54653252,9.91016888 2.72727273,10.9938915 2.72727273,12.2673374 L2.72727273,12.4570607 C2.72727273,12.4628099 2.73302192,12.4685591 2.73877111,12.4685591 L6.25440172,12.4685591 C6.23427955,12.6266619 6.22278117,12.7905138 6.22278117,12.9543658 L6.22278117,13.1498383 C6.22278117,13.9949695 6.90693496,14.6791232 7.75206612,14.6791232 L12.2076895,14.6791232 C13.0528207,14.6791232 13.7369745,13.9949695 13.7369745,13.1498383 L13.7369745,12.9543658 C13.7369745,12.7905138 13.7254761,12.6266619 13.7053539,12.4685591 L17.2439813,12.4685591 C17.2497305,12.4685591 17.2554797,12.4628099 17.2554797,12.4570607 L17.2554797,12.2673374 C17.2497305,10.9910169 16.4333453,9.90729429 15.2921308,9.51347467 Z M13.1419332,8.15379087 C13.1419332,7.49263385 13.6794826,6.95508444 14.3406396,6.95508444 C15.0017966,6.95508444 15.539346,7.49263385 15.539346,8.15379087 C15.539346,8.80632411 15.013295,9.33812433 14.3636364,9.35249731 C14.3550126,9.35249731 14.3492634,9.35249731 14.3406396,9.35249731 C14.3320158,9.35249731 14.3262666,9.35249731 14.3176428,9.35249731 C13.6651096,9.34099892 13.1419332,8.80919871 13.1419332,8.15379087 Z M8.32985986,7.55587496 C8.32985986,6.65037729 9.06575638,5.91448078 9.97125404,5.91448078 C10.8767517,5.91448078 11.6126482,6.65037729 11.6126482,7.55587496 C11.6126482,8.42975207 10.9256198,9.14552641 10.0661157,9.19439454 C10.0344951,9.19439454 10.0028746,9.19439454 9.97125404,9.19439454 C9.93963349,9.19439454 9.90801294,9.19439454 9.87639238,9.19439454 C9.01688825,9.14552641 8.32985986,8.42975207 8.32985986,7.55587496 Z M4.43190801,8.15379087 C4.43190801,7.49263385 4.96945742,6.95508444 5.63061444,6.95508444 C6.29177147,6.95508444 6.82932088,7.49263385 6.82932088,8.15379087 C6.82932088,8.80632411 6.30326985,9.33812433 5.65361121,9.35249731 C5.64498742,9.35249731 5.63923823,9.35249731 5.63061444,9.35249731 C5.62199066,9.35249731 5.61624147,9.35249731 5.60761768,9.35249731 C4.95795904,9.34099892 4.43190801,8.80919871 4.43190801,8.15379087 Z M6.33489041,12.0057492 L3.19295724,12.0057492 C3.32231405,10.7811714 4.35716852,9.82105641 5.61336687,9.81243263 C5.61911606,9.81243263 5.62486525,9.81243263 5.63061444,9.81243263 C5.63636364,9.81243263 5.64211283,9.81243263 5.64786202,9.81243263 C6.24577794,9.81530722 6.79195113,10.0366511 7.21451671,10.3959756 C6.80057492,10.8444125 6.49299317,11.3963349 6.33489041,12.0057492 Z M13.27129,13.1498383 C13.27129,13.7391304 12.7912325,14.2191879 12.2019404,14.2191879 L7.74631692,14.2191879 C7.15702479,14.2191879 6.6769673,13.7391304 6.6769673,13.1498383 L6.6769673,12.9543658 C6.6769673,11.1692418 8.1027668,9.70894718 9.87639238,9.65720446 C9.90801294,9.66007905 9.94250808,9.66007905 9.97412864,9.66007905 C10.0057492,9.66007905 10.0402443,9.66007905 10.0718649,9.65720446 C11.8454905,9.70894718 13.27129,11.1692418 13.27129,12.9543658 L13.27129,13.1498383 L13.27129,13.1498383 Z M13.6133669,12.0057492 C13.4552641,11.3992095 13.1534315,10.8559109 12.7423644,10.4074739 C13.1678045,10.0395257 13.7197269,9.81818182 14.323392,9.81243263 C14.3291412,9.81243263 14.3348904,9.81243263 14.3406396,9.81243263 C14.3463888,9.81243263 14.352138,9.81243263 14.3578872,9.81243263 C15.6140855,9.82105641 16.64894,10.7811714 16.7782968,12.0057492 L13.6133669,12.0057492 Z" id="Shape" stroke="#183E44" stroke-width="0.2" fill="#373737"></path>
            </g>
        </g>
    </g>
</svg>