<?xml version="1.0" encoding="UTF-8"?>
<svg width="20px" height="21px" viewBox="0 0 20 21" version="1.1" xmlns="http://www.w3.org/2000/svg" xmlns:xlink="http://www.w3.org/1999/xlink">
    <title>2-1</title>
    <g id="Report" stroke="none" stroke-width="1" fill="none" fill-rule="evenodd">
        <g id="2-1" transform="translate(0.000000, 0.500000)">
            <rect id="Rectangle" stroke="#093238" stroke-width="0.8" x="0.4" y="0.4" width="19.2" height="19.2" rx="2.85714286"></rect>
            <path d="M10.6873903,9.043484 L9.31260975,9.043484 C8.52938616,9.043484 7.89222284,8.40632068 7.89222284,7.62313988 C7.89222284,6.83991629 8.52942894,6.20275298 9.31260975,6.20275298 L12.062128,6.20275298 C12.4165402,6.20275298 12.703869,5.91542411 12.703869,5.5610119 C12.703869,5.2065997 12.4165402,4.91927083 12.062128,4.91927083 L10.6417411,4.91927083 L10.6417411,3.49888393 C10.6417411,3.14447173 10.3544122,2.85714286 10,2.85714286 C9.6455878,2.85714286 9.35825893,3.14447173 9.35825893,3.49888393 L9.35825893,4.91927083 L9.31265253,4.91927083 C7.82171689,4.91927083 6.60878348,6.13224702 6.60878348,7.62313988 C6.60878348,9.11403274 7.82175967,10.3269661 9.31265253,10.3269661 L10.687433,10.3269661 C11.4706138,10.3269661 12.1077772,10.9641722 12.1077772,11.7473531 C12.1077772,12.5305339 11.4706138,13.16774 10.687433,13.16774 L7.93791481,13.16774 C7.5835026,13.16774 7.29617374,13.4550688 7.29617374,13.809481 C7.29617374,14.1638932 7.5835026,14.4512221 7.93791481,14.4512221 L9.35825893,14.4512221 L9.35825893,15.8716518 C9.35825893,16.226064 9.6455878,16.5133929 10,16.5133929 C10.3544122,16.5133929 10.6417411,16.226064 10.6417411,15.8716518 L10.6417411,14.4512221 L10.6873903,14.4512221 C12.1782831,14.4512221 13.3912165,13.2382459 13.3912165,11.7473531 C13.3912165,10.2564602 12.1782831,9.043484 10.6873903,9.043484 Z" id="Path" stroke="#FFFFFF" stroke-width="0.5" fill="#093238" fill-rule="nonzero"></path>
        </g>
    </g>
</svg>