<?xml version="1.0" encoding="UTF-8"?>
<svg width="20px" height="20px" viewBox="0 0 20 20" version="1.1" xmlns="http://www.w3.org/2000/svg" xmlns:xlink="http://www.w3.org/1999/xlink">
    <title>1_1</title>
    <g id="Report" stroke="none" stroke-width="1" fill="none" fill-rule="evenodd">
        <path d="M16.25,0 C16.8961719,0 17.421875,0.525703125 17.421875,1.171875 L17.421875,1.171875 L17.421875,1.8528125 C17.6237219,2.22559062 17.8097732,2.56793075 17.9812646,2.88243179 L18.227736,3.33362892 C19.7215175,6.06309002 19.9570056,6.39735042 19.9934526,6.56465915 L19.9977078,6.59001377 L19.9977078,6.59001377 L19.9995814,6.61454276 C19.9999119,6.62279806 20,6.63124063 20,6.64019531 L20,6.64019531 L20,7.421875 C20,8.09183594 19.6022266,8.72894531 18.984375,9.08671875 L18.984375,9.08671875 L18.984375,19.609375 C18.984375,19.8250781 18.8094531,20 18.59375,20 L18.59375,20 L1.40625,20 C1.19054688,20 1.015625,19.8250781 1.015625,19.609375 L1.015625,19.609375 L1.015625,9.08671875 C0.391484375,8.72863281 0,8.09894531 0,7.421875 L0,7.421875 L0.000819763892,6.60379968 C0.00105819117,6.59993684 0.0013644851,6.59609512 0.00175739817,6.59223528 L0.00530432653,6.56854472 L0.00530432653,6.56854472 L0.011830235,6.54253511 C0.0714242118,6.34332239 0.429870558,5.82030025 2.578125,1.8528125 L2.578125,1.8528125 L2.578125,1.171875 C2.578125,0.525703125 3.10382812,0 3.75,0 L3.75,0 Z M8.046875,15.859375 L4.140625,15.859375 L4.140625,19.21875 L8.046875,19.21875 L8.046875,15.859375 Z M16.2692188,8.56566406 C15.9139844,9.05554687 15.3375,9.375 14.6875,9.375 C14.0492578,9.375 13.4816406,9.06726562 13.125,8.59238281 C12.7683594,9.06726562 12.2007422,9.375 11.5625,9.375 C10.9242578,9.375 10.3566406,9.06726562 10,8.59238281 C9.64335937,9.06726562 9.07574219,9.375 8.4375,9.375 C7.79925781,9.375 7.23164062,9.06726562 6.875,8.59238281 C6.51835938,9.06726562 5.95074219,9.375 5.3125,9.375 C4.6625,9.375 4.08601562,9.05554687 3.73078125,8.56566406 C3.66074219,8.65367187 3.58269531,8.73765625 3.49601562,8.81617187 C3.10410156,9.17132812 2.58441406,9.375 2.0703125,9.375 C1.97863281,9.375 1.88742187,9.36820312 1.796875,9.35589844 L1.796875,9.35589844 L1.796875,19.21875 L3.359375,19.21875 L3.359375,11.328125 C3.359375,11.1124219 3.53429687,10.9375 3.75,10.9375 L3.75,10.9375 L8.4375,10.9375 C8.65320312,10.9375 8.828125,11.1124219 8.828125,11.328125 L8.828125,11.328125 L8.828125,19.21875 L18.203125,19.21875 L18.203125,9.35605469 C18.1123828,9.3684375 18.0211719,9.375 17.9296875,9.375 C17.4155859,9.375 16.8958984,9.17132812 16.5039844,8.81617188 C16.4173047,8.73761719 16.3392578,8.65367187 16.2692188,8.56566406 Z M14.6875,16.640625 C14.9032031,16.640625 15.078125,16.8155469 15.078125,17.03125 C15.078125,17.2469531 14.9032031,17.421875 14.6875,17.421875 L14.6875,17.421875 L11.5625,17.421875 C11.3467969,17.421875 11.171875,17.2469531 11.171875,17.03125 C11.171875,16.8155469 11.3467969,16.640625 11.5625,16.640625 L11.5625,16.640625 Z M16.25,10.9375 C16.4657031,10.9375 16.640625,11.1124219 16.640625,11.328125 L16.640625,11.328125 L16.640625,15.078125 L17.03125,15.078125 C17.2469531,15.078125 17.421875,15.2530469 17.421875,15.46875 C17.421875,15.6844531 17.2469531,15.859375 17.03125,15.859375 L17.03125,15.859375 L10.78125,15.859375 C10.5655469,15.859375 10.390625,15.6844531 10.390625,15.46875 C10.390625,15.2530469 10.5655469,15.078125 10.78125,15.078125 L10.78125,15.078125 L11.171875,15.078125 L11.171875,11.328125 C11.171875,11.1124219 11.3467969,10.9375 11.5625,10.9375 L11.5625,10.9375 Z M8.046875,11.71875 L4.140625,11.71875 L4.140625,15.078125 L8.046875,15.078125 L8.046875,11.71875 Z M15.859375,11.71875 L11.953125,11.71875 L11.953125,15.078125 L15.859375,15.078125 L15.859375,11.71875 Z M15.859375,7.03125 L13.515625,7.03125 L13.515625,7.421875 C13.515625,8.06804688 14.0413281,8.59375 14.6875,8.59375 C15.3336719,8.59375 15.859375,8.06804688 15.859375,7.421875 L15.859375,7.421875 L15.859375,7.03125 Z M12.734375,7.03125 L10.390625,7.03125 L10.390625,7.421875 C10.390625,8.06804688 10.9163281,8.59375 11.5625,8.59375 C12.2086719,8.59375 12.734375,8.06804688 12.734375,7.421875 L12.734375,7.421875 L12.734375,7.03125 Z M9.609375,7.03125 L7.265625,7.03125 L7.265625,7.421875 C7.265625,8.06804688 7.79132812,8.59375 8.4375,8.59375 C9.08367188,8.59375 9.609375,8.06804688 9.609375,7.421875 L9.609375,7.421875 L9.609375,7.03125 Z M6.484375,7.03125 L4.140625,7.03125 L4.140625,7.421875 C4.140625,8.06804688 4.66632812,8.59375 5.3125,8.59375 C5.95867188,8.59375 6.484375,8.06804688 6.484375,7.421875 L6.484375,7.421875 L6.484375,7.03125 Z M3.359375,7.03125 L0.78125,7.03125 L0.78125,7.421875 C0.78125,7.860625 1.09417969,8.28855469 1.55992187,8.48664062 C1.72398438,8.55683594 1.90023438,8.59375 2.0703125,8.59375 C2.74496094,8.59375 3.359375,8.03519531 3.359375,7.421875 L3.359375,7.421875 L3.359375,7.03125 Z M19.21875,7.03125 L16.640625,7.03125 L16.640625,7.421875 C16.640625,8.03519531 17.2550391,8.59375 17.9296875,8.59375 C18.09125,8.59375 18.2532031,8.56191406 18.4111719,8.49902344 C18.8941797,8.30582031 19.21875,7.87296875 19.21875,7.421875 L19.21875,7.421875 L19.21875,7.03125 Z M16.8003125,2.34375 L15.2294922,2.34375 L16.5315625,6.25 L18.94875,6.25 L16.8003125,2.34375 Z M14.4059375,2.34375 L12.8048828,2.34375 L13.4558984,6.25 L15.7080078,6.25 L14.4059375,2.34375 Z M12.0128516,2.34375 L10.390625,2.34375 L10.390625,6.25 L12.6639063,6.25 L12.0128516,2.34375 Z M9.609375,2.34375 L7.9871875,2.34375 L7.33613281,6.25 L9.609375,6.25 L9.609375,2.34375 Z M7.19511719,2.34375 L5.59402344,2.34375 L4.29195313,6.25 L6.5440625,6.25 L7.19511719,2.34375 Z M4.77050781,2.34375 L3.1996875,2.34375 L1.05125,6.25 L3.4684375,6.25 L4.77050781,2.34375 Z M16.25,0.78125 L3.75,0.78125 C3.53460938,0.78125 3.359375,0.956484375 3.359375,1.171875 L3.359375,1.171875 L3.359375,1.5625 L3.359375,1.5625 L16.640625,1.5625 L16.640625,1.171875 C16.640625,0.956484375 16.4653906,0.78125 16.25,0.78125 L16.25,0.78125 Z" id="1_1" fill="#093238" fill-rule="nonzero"></path>
    </g>
</svg>