<?xml version="1.0" encoding="UTF-8"?>
<svg width="21px" height="24px" viewBox="0 0 21 24" version="1.1" xmlns="http://www.w3.org/2000/svg" xmlns:xlink="http://www.w3.org/1999/xlink">
    <title>4-1</title>
    <g id="Report" stroke="none" stroke-width="1" fill="none" fill-rule="evenodd">
        <g id="4-1" transform="translate(1.200111, 0.957563)" stroke="#093238">
            <g id="Group-35" transform="translate(-0.000000, 0.000000)">
                <g id="Group-37" transform="translate(9.669591, 11.164076) scale(1, -1) translate(-9.669591, -11.164076) translate(-0.000000, 0.000000)">
                    <g id="Group-24" transform="translate(0.000000, 6.509235)" stroke-linecap="round" stroke-linejoin="round">
                        <g id="Group-22-Copy" transform="translate(15.039957, 7.909458) scale(-1, 1) translate(-15.039957, -7.909458) translate(10.740733, 0.000000)">
                            <path d="M8.59844835,12.4157269 L7.01803339,12.7233472 C5.77451948,12.9655163 4.51108316,12.7087642 3.46059265,12.0005716 C2.41010213,11.2924364 1.69823506,10.2175452 1.45618073,8.9739739 L0.293504695,3.00029588 C0.194811292,2.49316451 0.474643547,1.98454039 0.944456297,1.81718073 C1.22457562,1.71739647 1.53305709,1.74466777 1.79084265,1.89187538 C2.04880046,2.03914041 2.2290207,2.29078275 2.28545793,2.58261438 L3.06461336,6.59844263 C3.09952062,6.77826098 3.24431688,6.91633988 3.42562797,6.94257775 L3.7404249,6.98816388 C5.81028795,7.28803336 7.4694739,8.8687928 7.86912764,10.9217763" id="Shape" stroke-width="0.614286"></path>
                            <path d="M0.395403909,1.33008658 C0.306872654,1.0869414 0.318355307,0.823873823 0.427727578,0.589398047 C0.535320037,0.358654134 0.725300532,0.183141782 0.96299145,0.0932900219 C1.01713216,0.565284476 1.14350808,1.1107345 1.28187405,1.56837564 C1.03907335,1.68578576 0.828844455,1.99280499 0.786672051,2.3183076 L0.395403909,1.33008658 Z" id="Path" stroke-width="0.514286" transform="translate(0.809159, 1.205799) rotate(19.000000) translate(-0.809159, -1.205799) "></path>
                            <line x1="4.87692472" y1="12.6611865" x2="4.87692472" y2="15.8189161" id="Path-5" stroke-width="0.714285714"></line>
                            <line x1="8.29487172" y1="12.4889467" x2="8.29487172" y2="14.7854774" id="Path-5-Copy-2" stroke-width="0.714285714"></line>
                        </g>
                        <g id="Group-22-Copy-2" transform="translate(-0.000000, 0.000000)">
                            <path d="M8.55179472,12.4157269 L6.97137977,12.7233472 C5.72786585,12.9655163 4.46442954,12.7087642 3.41393902,12.0005716 C2.36344851,11.2924364 1.65158143,10.2175452 1.4095271,8.9739739 L0.246851066,3.00029588 C0.148157663,2.49316451 0.427989918,1.98454039 0.897802668,1.81718073 C1.17792199,1.71739647 1.48640346,1.74466777 1.74418903,1.89187538 C2.00214683,2.03914041 2.18236707,2.29078275 2.23880431,2.58261438 L3.01795973,6.59844263 C3.05286699,6.77826098 3.19766325,6.91633988 3.37897434,6.94257775 L3.69377128,6.98816388 C5.76363432,7.28803336 7.42282027,8.8687928 7.82247401,10.9217763" id="Shape" stroke-width="0.614286"></path>
                            <path d="M0.385486389,1.33174621 C0.296955134,1.08860103 0.308437787,0.825533447 0.417810058,0.591057671 C0.525402517,0.360313758 0.715383012,0.184801406 0.95307393,0.0949496455 C1.00721464,0.5669441 1.13359056,1.11239412 1.27195653,1.57003526 C1.02915583,1.68744539 0.789570152,1.93354022 0.747397748,2.25904283 L0.385486389,1.33174621 Z" id="Path" stroke-width="0.514286" transform="translate(0.799241, 1.176996) rotate(19.000000) translate(-0.799241, -1.176996) "></path>
                            <line x1="4.8302711" y1="12.6611865" x2="4.8302711" y2="15.8189161" id="Path-5" stroke-width="0.614286"></line>
                            <line x1="8.24821809" y1="12.4889467" x2="8.24821809" y2="14.7854774" id="Path-5-Copy" stroke-width="0.614286"></line>
                        </g>
                    </g>
                    <path d="M7.6607427,16.8193225 C8.29782302,16.9712832 8.96264758,17.0517398 9.6462638,17.0517398 C10.3314823,17.0517398 10.9978209,16.9709056 11.6362639,16.8182529 M18.1687931,8.28486701 C18.0411934,3.68760133 14.2743713,0 9.6462638,0 C5.02412696,0 1.26105471,3.6780928 1.12424655,8.26707893" id="Shape" stroke-width="0.614286" stroke-linecap="round" stroke-linejoin="round"></path>
                    <g id="Group-25" transform="translate(11.230637, 10.549328) rotate(-59.000000) translate(-11.230637, -10.549328) translate(6.539228, 6.254857)" stroke-linecap="round" stroke-linejoin="round" stroke-width="0.455556">
                        <path d="M4.59306122,7.84931283 C7.12973889,7.84931283 9.18612245,5.79292928 9.18612245,3.25625161 L-2.84217094e-14,3.25625161 C-2.84217094e-14,5.79292928 2.05638356,7.84931283 4.59306122,7.84931283 Z" id="Oval"></path>
                        <path d="M1.98064624,7.2979586 C3.77449089,8.3758092 6.10907933,7.7843647 7.19509547,5.97693032 C8.28111161,4.16949593 7.70730323,1.83051031 5.91345858,0.752659704" id="Path" transform="translate(4.862585, 4.294471) rotate(59.000000) translate(-4.862585, -4.294471) "></path>
                        <line x1="4.4536234" y1="6.00863481" x2="4.84732559" y2="6.24519495" id="Line-4" transform="translate(4.650474, 6.126915) rotate(59.000000) translate(-4.650474, -6.126915) "></line>
                        <line x1="3.61073379" y1="5.7719574" x2="3.96323465" y2="6.20725971" id="Line-4" transform="translate(3.786984, 5.989609) rotate(59.000000) translate(-3.786984, -5.989609) "></line>
                        <line x1="2.93769489" y1="5.28710764" x2="3.1200552" y2="5.8167204" id="Line-4" transform="translate(3.028875, 5.551914) rotate(59.000000) translate(-3.028875, -5.551914) "></line>
                        <line x1="2.4710736" y1="4.60130503" x2="2.46129799" y2="5.16134914" id="Line-4" transform="translate(2.466186, 4.881327) rotate(59.000000) translate(-2.466186, -4.881327) "></line>
                        <line x1="2.26715131" y1="3.7972675" x2="2.06641888" y2="4.32019336" id="Line-4" transform="translate(2.166785, 4.058730) rotate(59.000000) translate(-2.166785, -4.058730) "></line>
                        <line x1="6.94762426" y1="4.27009795" x2="7.31510222" y2="3.84736291" id="Line-4" transform="translate(7.131363, 4.058730) rotate(59.000000) translate(-7.131363, -4.058730) "></line>
                        <line x1="6.58701243" y1="5.01710515" x2="7.07691265" y2="4.74554902" id="Line-4" transform="translate(6.831963, 4.881327) rotate(59.000000) translate(-6.831963, -4.881327) "></line>
                        <line x1="5.99265664" y1="5.59572579" x2="6.54588994" y2="5.50810225" id="Line-4" transform="translate(6.269273, 5.551914) rotate(59.000000) translate(-6.269273, -5.551914) "></line>
                        <line x1="5.23624498" y1="5.93616969" x2="5.78608325" y2="6.04304742" id="Line-4" transform="translate(5.511164, 5.989609) rotate(59.000000) translate(-5.511164, -5.989609) "></line>
                    </g>
                    <g id="62691" transform="translate(6.057935, 10.391801) rotate(127.000000) translate(-6.057935, -10.391801) translate(4.278124, 8.611990)" stroke-width="0.434252">
                        <path d="" id="Path"></path>
                        <path d="" id="Path"></path>
                        <path d="" id="Path"></path>
                        <path d="" id="Path"></path>
                        <path d="M3.21954248,0.911480959 C3.31022002,1.07413925 3.34249645,1.27373455 3.34249645,1.47445055 C3.34249645,1.9734255 3.14818805,2.44252861 2.79536067,2.79535599 C2.44253497,3.14818856 1.97341825,3.34249645 1.47445055,3.34249645 C1.25523241,3.34249645 1.04177981,3.30499278 0.841570915,3.23302141 C1.07063983,3.26968846 1.27253924,3.30744952 1.47443712,3.30744952 C1.94404572,3.30744952 2.41360492,3.12860008 2.77110156,2.77110343 C3.12859435,2.413615 3.30744088,1.94405701 3.30744088,1.47444762 C3.30744088,1.28429825 3.27811865,1.09415756 3.21954248,0.911480959 Z" id="Path"></path>
                    </g>
                    <g id="Group-27" transform="translate(4.909669, 3.157730)" stroke-width="0.355556">
                        <path d="M1.52354443,3.87752959 C1.44404729,3.82386529 1.3723464,3.76454269 1.30433127,3.69621638 C0.692003266,3.08096295 0.692003266,2.07985792 1.30433127,1.46460449 C1.91664558,0.849364822 2.91297682,0.849337288 3.52533223,1.46460449 C3.67563964,1.61563 3.84948654,1.84393046 3.99928699,2.39208286 C4.02847156,2.49891585 4.05360044,2.60651981 4.07398854,2.71189349 C4.16431,3.17901251 4.16437851,3.59705168 4.07416666,3.95441906 C4.03769279,4.09883635 3.92550345,4.21116243 3.7813755,4.24754898 C3.10886972,4.41732534 2.37178793,4.22830252 1.99226514,4.10051594 C1.97205516,4.09371497 1.95206442,4.08673503 1.93227919,4.07957612 C1.89669137,4.06669926 1.76044644,3.99935042 1.52354443,3.87752959 Z M0.649459555,2.38418052 C0.618822602,2.38500655 0.588007527,2.38491018 0.557137646,2.3835197 C0.34736495,2.37403414 0.155308524,2.30665776 0,2.1883705 C0.0546833984,2.00317495 0.167475615,1.83648244 0.327374201,1.7049925 C0.476338849,1.58250626 0.633716326,1.50326261 0.78248915,1.47586601 C0.867809501,1.4601577 0.952938029,1.45350817 1.03613462,1.45520153 C0.819730312,1.72191231 0.686440385,2.04234246 0.649459555,2.38418052 Z M1.11339838,0.903056664 C1.09191415,1.02082077 1.08446044,1.13715309 1.09043437,1.24975452 C0.978382046,1.24373828 0.862630267,1.25117253 0.745453514,1.27274564 C0.682768335,1.28429627 0.619288459,1.30311595 0.555849688,1.32847502 C0.48728649,1.24467444 0.427656785,1.14188899 0.380070856,1.02445529 C0.302149411,0.832169666 0.282364188,0.631568687 0.322400492,0.442656009 C0.515087195,0.413318237 0.715830485,0.44635937 0.90461221,0.538764405 C1.00141457,0.586137129 1.09136609,0.645156853 1.16915051,0.711803572 C1.1437613,0.775793233 1.1249215,0.839824195 1.11339838,0.903056664 L1.11339838,0.903056664 Z M2.21953488,0.807567789 C1.88895449,0.843981871 1.56673212,0.973214003 1.29506894,1.19526418 C1.29334253,1.11162882 1.29990563,1.02605228 1.31555295,0.940296774 C1.34281929,0.790799414 1.42167245,0.632670058 1.54358998,0.482993726 C1.67445471,0.322331217 1.84034093,0.209000131 2.02465591,0.15405548 C2.14239443,0.310105997 2.20943674,0.503079981 2.2188772,0.713854876 C2.22027477,0.745188883 2.22039809,0.776467823 2.21953488,0.807567789 L2.21953488,0.807567789 Z M5.39430967,0.166831385 C5.51878942,0.0804976574 5.68582658,0.024699444 5.87736234,0.00549428547 C6.08295603,-0.0151426555 6.28001356,0.0225930718 6.44902377,0.11469523 C6.42245621,0.308687982 6.33405298,0.492782162 6.19240503,0.648516035 C6.17131815,0.671699897 6.14924475,0.693727319 6.12673289,0.715107685 C5.86740122,0.506094985 5.54874129,0.3685062 5.20051313,0.332491365 C5.25807388,0.272136229 5.32292393,0.216338015 5.39430967,0.166831385 Z M3.58574293,0.11469523 C3.75472573,0.0226068389 3.95176957,-0.0151151212 4.15740436,0.00549428547 C4.34894012,0.024699444 4.51597728,0.0804976574 4.64047073,0.166831385 C4.71191128,0.216379317 4.77691204,0.27217753 4.83463721,0.332518899 C4.48632685,0.368478666 4.1675573,0.505971081 3.90819823,0.715052617 C3.88563157,0.69367225 3.86346225,0.671727431 3.84236167,0.648516035 C3.70070001,0.492768394 3.61231049,0.308687982 3.58574293,0.11469523 L3.58574293,0.11469523 Z M6.27029907,3.10011304 C6.21575269,3.1964004 6.15780829,3.29033359 6.09805528,3.37932438 C5.83318813,3.77380797 5.5390405,4.06944351 5.22375118,4.25803954 C5.09635297,4.33425442 4.93796157,4.33397908 4.81041265,4.25729612 C4.62186385,4.14392373 4.45419641,4.00041507 4.30728702,3.84587894 C4.36935562,3.496703 4.35891494,3.1029353 4.27567724,2.6724644 C4.25430263,2.56198312 4.2279817,2.44924402 4.19742696,2.33737225 C4.10624229,2.00371187 3.97234949,1.62174261 3.67061113,1.31854891 C3.6679393,1.31586432 3.66519896,1.3132761 3.66251344,1.31061904 C3.93556048,0.843734063 4.44056324,0.529567956 5.0173765,0.529567956 C5.88334997,0.529567956 6.58786287,1.2374467 6.58786287,2.10754363 C6.58786287,2.32112702 6.55012845,2.60607926 6.27029907,3.10011304 L6.27029907,3.10011304 Z" id="Shape"></path>
                        <line x1="3.09251386" y1="3.28942978" x2="3.25333347" y2="3.45024528" id="Path-7" stroke-linecap="round" stroke-linejoin="round"></line>
                        <line x1="2.31520816" y1="3.14366551" x2="2.47602777" y2="3.30448101" id="Path-7-Copy" stroke-linecap="round" stroke-linejoin="round"></line>
                        <line x1="1.45400918" y1="2.97142572" x2="1.61482879" y2="3.13224121" id="Path-7-Copy-3" stroke-linecap="round" stroke-linejoin="round"></line>
                        <line x1="2.94675408" y1="2.45470633" x2="3.10757369" y2="2.61552183" id="Path-7-Copy-2" stroke-linecap="round" stroke-linejoin="round"></line>
                        <line x1="2.0855551" y1="2.28246653" x2="2.24637471" y2="2.44328203" id="Path-7-Copy-4" stroke-linecap="round" stroke-linejoin="round"></line>
                        <line x1="2.77451428" y1="1.59350735" x2="2.93533389" y2="1.75432285" id="Path-7-Copy-5" stroke-linecap="round" stroke-linejoin="round"></line>
                        <line x1="5.04048055" y1="3.4881451" x2="5.04048055" y2="3.25849204" id="Path-8" stroke-linecap="round" stroke-linejoin="round"></line>
                        <line x1="4.58117443" y1="2.85659918" x2="4.58117443" y2="2.62694612" id="Path-8-Copy" stroke-linecap="round" stroke-linejoin="round"></line>
                        <line x1="5.06918719" y1="2.16764" x2="5.06918719" y2="1.93798694" id="Path-8-Copy-3" stroke-linecap="round" stroke-linejoin="round"></line>
                        <line x1="5.49978668" y1="2.85659918" x2="5.49978668" y2="2.62694612" id="Path-8-Copy-2" stroke-linecap="round" stroke-linejoin="round"></line>
                        <line x1="5.98779943" y1="2.16764" x2="5.98779943" y2="1.93798694" id="Path-8-Copy-4" stroke-linecap="round" stroke-linejoin="round"></line>
                    </g>
                </g>
            </g>
        </g>
    </g>
</svg>