<?xml version="1.0" encoding="UTF-8"?>
<svg width="21px" height="24px" viewBox="0 0 21 24" version="1.1" xmlns="http://www.w3.org/2000/svg" xmlns:xlink="http://www.w3.org/1999/xlink">
    <title>4-2</title>
    <g id="Report" stroke="none" stroke-width="1" fill="none" fill-rule="evenodd">
        <g id="4-2" transform="translate(1.200111, 0.957563)" stroke="#FFFFFF">
            <path d="M19.0654154,13.6644785 L17.4850004,13.9720988 C16.2414865,14.214268 14.9780502,13.9575158 13.9275597,13.2493232 C12.8770691,12.541188 12.1652021,11.4662969 11.9231477,10.2227255 L10.7604717,4.24904751 C10.6617783,3.74191614 10.9416106,3.23329202 11.4114233,3.06593235 C11.6915426,2.9661481 12.0000241,2.9934194 12.2578097,3.14062701 C12.5157675,3.28789204 12.6959877,3.53953438 12.7524249,3.83136601 L13.5315804,7.84719426 C13.5664876,8.02701261 13.7112839,8.16509151 13.892595,8.19132938 L14.2073919,8.23691551 C16.277255,8.53678499 17.9364409,10.1175444 18.3360947,12.170528" id="Shape" stroke-width="0.614286" stroke-linecap="round" stroke-linejoin="round" transform="translate(14.903074, 8.533834) scale(-1, -1) translate(-14.903074, -8.533834) "></path>
            <path d="M18.1162678,14.7374051 C18.0277366,14.4942599 18.0392192,14.2311923 18.1485915,13.9967166 C18.256184,13.7659726 18.4461645,13.5904603 18.6838554,13.5006085 C18.7379961,13.972603 18.864372,14.518053 19.002738,14.9756942 C18.7599373,15.0931043 18.5497084,15.4001235 18.507536,15.7256261 L18.1162678,14.7374051 Z" id="Path" stroke-width="0.514286" stroke-linecap="round" stroke-linejoin="round" transform="translate(18.530023, 14.613117) scale(-1, -1) rotate(19.000000) translate(-18.530023, -14.613117) "></path>
            <line x1="14.4622565" y1="0" x2="14.4622565" y2="3.15772959" id="Path-5" stroke-width="0.714285714" stroke-linecap="round" stroke-linejoin="round" transform="translate(14.462256, 1.578865) scale(-1, -1) translate(-14.462256, -1.578865) "></line>
            <line x1="11.0443095" y1="1.03343878" x2="11.0443095" y2="3.32996939" id="Path-5-Copy-2" stroke-width="0.714285714" stroke-linecap="round" stroke-linejoin="round" transform="translate(11.044310, 2.181704) scale(-1, -1) translate(-11.044310, -2.181704) "></line>
            <path d="M8.55179472,13.6644785 L6.97137977,13.9720988 C5.72786585,14.214268 4.46442954,13.9575158 3.41393902,13.2493232 C2.36344851,12.541188 1.65158143,11.4662969 1.4095271,10.2227255 L0.246851066,4.24904751 C0.148157663,3.74191614 0.427989918,3.23329202 0.897802668,3.06593235 C1.17792199,2.9661481 1.48640346,2.9934194 1.74418903,3.14062701 C2.00214683,3.28789204 2.18236707,3.53953438 2.23880431,3.83136601 L3.01795973,7.84719426 C3.05286699,8.02701261 3.19766325,8.16509151 3.37897434,8.19132938 L3.69377128,8.23691551 C5.76363432,8.53678499 7.42282027,10.1175444 7.82247401,12.170528" id="Shape" stroke-width="0.614286" stroke-linecap="round" stroke-linejoin="round" transform="translate(4.389453, 8.533834) scale(1, -1) translate(-4.389453, -8.533834) "></path>
            <path d="M0.385486389,14.7966699 C0.296955134,14.5535247 0.308437787,14.2904571 0.417810058,14.0559813 C0.525402517,13.8252374 0.715383012,13.6497251 0.95307393,13.5598733 C1.00721464,14.0318678 1.13359056,14.5773178 1.27195653,15.0349589 C1.02915583,15.152369 0.789570152,15.3984639 0.747397748,15.7239665 L0.385486389,14.7966699 Z" id="Path" stroke-width="0.514286" stroke-linecap="round" stroke-linejoin="round" transform="translate(0.799241, 14.641920) scale(1, -1) rotate(19.000000) translate(-0.799241, -14.641920) "></path>
            <line x1="4.8302711" y1="1.0857093e-11" x2="4.8302711" y2="3.15772959" id="Path-5" stroke-width="0.614286" stroke-linecap="round" stroke-linejoin="round" transform="translate(4.830271, 1.578865) scale(1, -1) translate(-4.830271, -1.578865) "></line>
            <line x1="8.24821809" y1="1.03343878" x2="8.24821809" y2="3.32996939" id="Path-5-Copy" stroke-width="0.614286" stroke-linecap="round" stroke-linejoin="round" transform="translate(8.248218, 2.181704) scale(1, -1) translate(-8.248218, -2.181704) "></line>
            <path d="M7.6607427,5.27748148 C8.29782302,5.42944213 8.96264758,5.50989875 9.6462638,5.50989875 C10.3314823,5.50989875 10.9978209,5.42906455 11.6362639,5.27641183" id="Path" stroke-width="0.614286" stroke-linecap="round" stroke-linejoin="round" transform="translate(9.648503, 5.393155) scale(1, -1) translate(-9.648503, -5.393155) "></path>
            <path d="M18.1687931,22.3281516 C18.0411934,17.7308859 14.2743713,14.0432846 9.6462638,14.0432846 C5.02412696,14.0432846 1.26105471,17.7213774 1.12424655,22.3103635" id="Path" stroke-width="0.614286" stroke-linecap="round" stroke-linejoin="round" transform="translate(9.646520, 18.185718) scale(1, -1) translate(-9.646520, -18.185718) "></path>
            <path d="M12.2585674,13.3429756 C14.795245,13.3429756 16.8516286,11.286592 16.8516286,8.74991438 L7.66550615,8.74991438 C7.66550615,11.286592 9.72188971,13.3429756 12.2585674,13.3429756 Z" id="Oval" stroke-width="0.455556" stroke-linecap="round" stroke-linejoin="round" transform="translate(12.258567, 11.046445) scale(1, -1) rotate(-59.000000) translate(-12.258567, -11.046445) "></path>
            <path d="M8.43686082,14.929037 C10.2307055,16.0068876 12.5652939,15.4154431 13.65131,13.6080087 C14.7373262,11.8005743 14.1635178,9.46158869 12.3696732,8.38373809" id="Path" stroke-width="0.455556" stroke-linecap="round" stroke-linejoin="round" transform="translate(11.318799, 11.925550) scale(1, -1) translate(-11.318799, -11.925550) "></path>
            <line x1="12.583414" y1="10.6816775" x2="12.9771162" y2="10.9182377" id="Line-4" stroke-width="0.455556" stroke-linecap="round" stroke-linejoin="round" transform="translate(12.780265, 10.799958) scale(1, -1) translate(-12.780265, -10.799958) "></line>
            <line x1="12.0415898" y1="9.91286879" x2="12.3940907" y2="10.3481711" id="Line-4" stroke-width="0.455556" stroke-linecap="round" stroke-linejoin="round" transform="translate(12.217840, 10.130520) scale(1, -1) translate(-12.217840, -10.130520) "></line>
            <line x1="11.3610276" y1="9.44131652" x2="11.5433879" y2="9.97092929" id="Line-4" stroke-width="0.455556" stroke-linecap="round" stroke-linejoin="round" transform="translate(11.452208, 9.706123) scale(1, -1) translate(-11.452208, -9.706123) "></line>
            <line x1="10.592484" y1="9.28915983" x2="10.5827084" y2="9.84920393" id="Line-4" stroke-width="0.455556" stroke-linecap="round" stroke-linejoin="round" transform="translate(10.587596, 9.569182) scale(1, -1) translate(-10.587596, -9.569182) "></line>
            <line x1="9.82865667" y1="9.47475106" x2="9.62792423" y2="9.99767692" id="Line-4" stroke-width="0.455556" stroke-linecap="round" stroke-linejoin="round" transform="translate(9.728290, 9.736214) scale(1, -1) translate(-9.728290, -9.736214) "></line>
            <line x1="12.1014982" y1="14.2030555" x2="12.4689762" y2="13.7803205" id="Line-4" stroke-width="0.455556" stroke-linecap="round" stroke-linejoin="round" transform="translate(12.285237, 13.991688) scale(1, -1) translate(-12.285237, -13.991688) "></line>
            <line x1="12.5911873" y1="13.447161" x2="13.0810875" y2="13.1756049" id="Line-4" stroke-width="0.455556" stroke-linecap="round" stroke-linejoin="round" transform="translate(12.836137, 13.311383) scale(1, -1) translate(-12.836137, -13.311383) "></line>
            <line x1="12.8445196" y1="12.5274981" x2="13.3977529" y2="12.4398745" id="Line-4" stroke-width="0.455556" stroke-linecap="round" stroke-linejoin="round" transform="translate(13.121136, 12.483686) scale(1, -1) translate(-13.121136, -12.483686) "></line>
            <line x1="12.8309394" y1="11.5549917" x2="13.3807777" y2="11.6618694" id="Line-4" stroke-width="0.455556" stroke-linecap="round" stroke-linejoin="round" transform="translate(13.105859, 11.608431) scale(1, -1) translate(-13.105859, -11.608431) "></line>
            <path d="" id="Path" stroke-width="0.434252" transform="translate(6.496224, 11.118896) scale(1, -1) rotate(127.000000) translate(-6.496224, -11.118896) "></path>
            <path d="" id="Path" stroke-width="0.434252" transform="translate(5.649207, 11.717206) scale(1, -1) rotate(127.000000) translate(-5.649207, -11.717206) "></path>
            <path d="" id="Path" stroke-width="0.434252" transform="translate(5.746529, 12.235125) scale(1, -1) rotate(127.000000) translate(-5.746529, -12.235125) "></path>
            <path d="" id="Path" stroke-width="0.434252" transform="translate(6.234125, 12.950199) scale(1, -1) rotate(127.000000) translate(-6.234125, -12.950199) "></path>
            <path d="M7.49766598,11.0680203 C7.58834352,11.2306786 7.62061995,11.4302739 7.62061995,11.6309899 C7.62061995,12.1299649 7.42631155,12.599068 7.07348417,12.9518954 C6.72065847,13.3047279 6.25154175,13.4990358 5.75257405,13.4990358 C5.53335591,13.4990358 5.31990331,13.4615322 5.11969442,13.3895608 C5.34876333,13.4262278 5.55066274,13.4639889 5.75256062,13.4639889 C6.22216922,13.4639889 6.69172842,13.2851395 7.04922506,12.9276428 C7.40671785,12.5701544 7.58556438,12.1005964 7.58556438,11.630987 C7.58556438,11.4408376 7.55624215,11.2506969 7.49766598,11.0680203 Z" id="Path" stroke-width="0.434252" transform="translate(6.057935, 11.936351) scale(1, -1) rotate(127.000000) translate(-6.057935, -11.936351) "></path>
            <path d="M6.43321384,18.7329465 C6.35371671,18.6792822 6.28201582,18.6199596 6.21400069,18.5516332 C5.60167268,17.9363798 5.60167268,16.9352748 6.21400069,16.3200214 C6.826315,15.7047817 7.82264624,15.7047542 8.43500165,16.3200214 C8.58530906,16.4710469 8.75915596,16.6993473 8.90895641,17.2474997 C8.93814098,17.3543327 8.96326986,17.4619367 8.98365796,17.5673104 C9.07397942,18.0344294 9.07404793,18.4524685 8.98383608,18.8098359 C8.94736221,18.9542532 8.83517287,19.0665793 8.69104491,19.1029659 C8.01853914,19.2727422 7.28145735,19.0837194 6.90193456,18.9559328 C6.88172458,18.9491318 6.86173383,18.9421519 6.84194861,18.934993 C6.80636079,18.9221161 6.67011586,18.8547673 6.43321384,18.7329465 Z M5.55912897,17.2395974 C5.52849202,17.2404234 5.49767695,17.2403271 5.46680706,17.2389366 C5.25703437,17.229451 5.06497794,17.1620746 4.90966942,17.0437874 C4.96435282,16.8585918 5.07714503,16.6918993 5.23704362,16.5604094 C5.38600827,16.4379231 5.54338575,16.3586795 5.69215857,16.3312829 C5.77747892,16.3155746 5.86260745,16.308925 5.94580404,16.3106184 C5.72939973,16.5773292 5.5961098,16.8977593 5.55912897,17.2395974 Z M6.0230678,15.7584735 C6.00158357,15.8762376 5.99412986,15.99257 6.00010379,16.1051714 C5.88805146,16.0991552 5.77229969,16.1065894 5.65512293,16.1281625 C5.59243775,16.1397131 5.52895788,16.1585328 5.46551911,16.1838919 C5.39695591,16.1000913 5.3373262,15.9973059 5.28974028,15.8798722 C5.21181883,15.6875865 5.19203361,15.4869856 5.23206991,15.2980729 C5.42475661,15.2687351 5.6254999,15.3017762 5.81428163,15.3941813 C5.91108399,15.441554 6.0010355,15.5005737 6.07881993,15.5672204 C6.05343072,15.6312101 6.03459091,15.6952411 6.0230678,15.7584735 L6.0230678,15.7584735 Z M7.1292043,15.6629847 C6.7986239,15.6993987 6.47640153,15.8286309 6.20473836,16.0506811 C6.20301195,15.9670457 6.20957505,15.8814692 6.22522237,15.7957136 C6.25248871,15.6462163 6.33134186,15.4880869 6.4532594,15.3384106 C6.58412413,15.1777481 6.75001035,15.064417 6.93432533,15.0094724 C7.05206385,15.1655229 7.11910616,15.3584969 7.12854662,15.5692717 C7.12994419,15.6006058 7.1300675,15.6318847 7.1292043,15.6629847 L7.1292043,15.6629847 Z M10.3039791,15.0222483 C10.4284588,14.9359145 10.595496,14.8801163 10.7870318,14.8609112 C10.9926254,14.8402742 11.189683,14.8780099 11.3586932,14.9701121 C11.3321256,15.1641049 11.2437224,15.348199 11.1020745,15.5039329 C11.0809876,15.5271168 11.0589142,15.5491442 11.0364023,15.5705246 C10.7770706,15.3615119 10.4584107,15.2239231 10.1101826,15.1879082 C10.1677433,15.1275531 10.2325933,15.0717549 10.3039791,15.0222483 Z M8.49541235,14.9701121 C8.66439515,14.8780237 8.86143899,14.8403018 9.06707378,14.8609112 C9.25860954,14.8801163 9.4256467,14.9359145 9.55014015,15.0222483 C9.6215807,15.0717962 9.68658146,15.1275944 9.74430663,15.1879358 C9.39599627,15.2238955 9.07722672,15.361388 8.81786765,15.5704695 C8.79530099,15.5490891 8.77313167,15.5271443 8.75203108,15.5039329 C8.61036943,15.3481853 8.5219799,15.1641049 8.49541235,14.9701121 L8.49541235,14.9701121 Z M11.1799685,17.9555299 C11.1254221,18.0518173 11.0674777,18.1457505 11.0077247,18.2347412 C10.7428575,18.6292248 10.4487099,18.9248604 10.1334206,19.1134564 C10.0060224,19.1896713 9.84763099,19.189396 9.72008207,19.112713 C9.53153327,18.9993406 9.36386583,18.8558319 9.21695644,18.7012958 C9.27902504,18.3521199 9.26858436,17.9583522 9.18534666,17.5278813 C9.16397205,17.4174 9.13765112,17.3046609 9.10709638,17.1927891 C9.01591171,16.8591287 8.88201891,16.4771595 8.58028055,16.1739658 C8.57760872,16.1712812 8.57486838,16.168693 8.57218285,16.1660359 C8.8452299,15.6991509 9.35023266,15.3849848 9.92704592,15.3849848 C10.7930194,15.3849848 11.4975323,16.0928636 11.4975323,16.9629605 C11.4975323,17.1765439 11.4597979,17.4614961 11.1799685,17.9555299 L11.1799685,17.9555299 Z" id="Shape" stroke-width="0.355556" transform="translate(8.203601, 17.012919) scale(1, -1) translate(-8.203601, -17.012919) "></path>
            <line x1="8.00218328" y1="15.7201767" x2="8.16300289" y2="15.8809922" id="Path-7" stroke-width="0.355556" stroke-linecap="round" stroke-linejoin="round" transform="translate(8.082593, 15.800584) scale(1, -1) translate(-8.082593, -15.800584) "></line>
            <line x1="7.22487758" y1="15.865941" x2="7.38569719" y2="16.0267565" id="Path-7-Copy" stroke-width="0.355556" stroke-linecap="round" stroke-linejoin="round" transform="translate(7.305287, 15.946349) scale(1, -1) translate(-7.305287, -15.946349) "></line>
            <line x1="6.3636786" y1="16.0381808" x2="6.52449821" y2="16.1989963" id="Path-7-Copy-3" stroke-width="0.355556" stroke-linecap="round" stroke-linejoin="round" transform="translate(6.444088, 16.118589) scale(1, -1) translate(-6.444088, -16.118589) "></line>
            <line x1="7.8564235" y1="16.5549002" x2="8.01724311" y2="16.7157157" id="Path-7-Copy-2" stroke-width="0.355556" stroke-linecap="round" stroke-linejoin="round" transform="translate(7.936833, 16.635308) scale(1, -1) translate(-7.936833, -16.635308) "></line>
            <line x1="6.99522452" y1="16.72714" x2="7.15604413" y2="16.8879555" id="Path-7-Copy-4" stroke-width="0.355556" stroke-linecap="round" stroke-linejoin="round" transform="translate(7.075634, 16.807548) scale(1, -1) translate(-7.075634, -16.807548) "></line>
            <line x1="7.6841837" y1="17.4160992" x2="7.84500331" y2="17.5769147" id="Path-7-Copy-5" stroke-width="0.355556" stroke-linecap="round" stroke-linejoin="round" transform="translate(7.764594, 17.496507) scale(1, -1) translate(-7.764594, -17.496507) "></line>
            <line x1="9.95014997" y1="15.91193" x2="9.95014997" y2="15.6822769" id="Path-8" stroke-width="0.355556" stroke-linecap="round" stroke-linejoin="round" transform="translate(9.950150, 15.797103) scale(1, -1) translate(-9.950150, -15.797103) "></line>
            <line x1="9.49084385" y1="16.5434759" x2="9.49084385" y2="16.3138228" id="Path-8-Copy" stroke-width="0.355556" stroke-linecap="round" stroke-linejoin="round" transform="translate(9.490844, 16.428649) scale(1, -1) translate(-9.490844, -16.428649) "></line>
            <line x1="9.97885661" y1="17.2324351" x2="9.97885661" y2="17.002782" id="Path-8-Copy-3" stroke-width="0.355556" stroke-linecap="round" stroke-linejoin="round" transform="translate(9.978857, 17.117609) scale(1, -1) translate(-9.978857, -17.117609) "></line>
            <line x1="10.4094561" y1="16.5434759" x2="10.4094561" y2="16.3138228" id="Path-8-Copy-2" stroke-width="0.355556" stroke-linecap="round" stroke-linejoin="round" transform="translate(10.409456, 16.428649) scale(1, -1) translate(-10.409456, -16.428649) "></line>
            <line x1="10.8974689" y1="17.2324351" x2="10.8974689" y2="17.002782" id="Path-8-Copy-4" stroke-width="0.355556" stroke-linecap="round" stroke-linejoin="round" transform="translate(10.897469, 17.117609) scale(1, -1) translate(-10.897469, -17.117609) "></line>
        </g>
    </g>
</svg>