<?xml version="1.0" encoding="UTF-8"?>
<svg width="10px" height="17px" viewBox="0 0 10 17" version="1.1" xmlns="http://www.w3.org/2000/svg" xmlns:xlink="http://www.w3.org/1999/xlink">
    <title>sort</title>
    <g id="Report-Management" stroke="none" stroke-width="1" fill="none" fill-rule="evenodd">
        <g id="sort" transform="translate(-0.022160, 0.500000)" fill="#8E8E93" fill-rule="nonzero">
            <path d="M8.97487686,6.4 L1.02512314,6.4 C0.748980766,6.4 0.525123141,6.17614237 0.525123141,5.9 C0.525123141,5.78844205 0.562430967,5.68008836 0.631110954,5.59217798 L4.60598781,0.504335599 C4.77599322,0.286728677 5.0902151,0.248140025 5.30782202,0.418145433 C5.33995961,0.443252925 5.36890469,0.472198009 5.39401219,0.504335599 L9.36888905,5.59217798 C9.53889445,5.8097849 9.5003058,6.12400678 9.28269888,6.29401219 C9.1947885,6.36269217 9.08643481,6.4 8.97487686,6.4 Z" id="Path"></path>
            <path d="M1.02512314,9.6 L8.97487686,9.6 C9.25101923,9.6 9.47487686,9.82385763 9.47487686,10.1 C9.47487686,10.2115579 9.43756903,10.3199116 9.36888905,10.407822 L5.39401219,15.4956644 C5.22400678,15.7132713 4.9097849,15.75186 4.69217798,15.5818546 C4.66004039,15.5567471 4.63109531,15.527802 4.60598781,15.4956644 L0.631110954,10.407822 C0.461105546,10.1902151 0.499694198,9.87599322 0.71730112,9.70598781 C0.805211503,9.63730783 0.913565192,9.6 1.02512314,9.6 Z" id="Path"></path>
        </g>
    </g>
</svg>