<?xml version="1.0" encoding="UTF-8"?>
<svg width="10px" height="16px" viewBox="0 0 10 16" version="1.1" xmlns="http://www.w3.org/2000/svg" xmlns:xlink="http://www.w3.org/1999/xlink">
    <title>Combined Shape Copy 3@1x</title>
    <g id="Transactions" stroke="none" stroke-width="1" fill="none" fill-rule="evenodd">
        <g id="Transaction-List" transform="translate(-497.000000, -359.000000)" fill="#444A4A" fill-rule="nonzero">
            <path d="M505.974877,368.6 C506.251019,368.6 506.474877,368.823858 506.474877,369.1 C506.474877,369.211558 506.437569,369.319912 506.368889,369.407822 L502.394012,374.495664 C502.224007,374.713271 501.909785,374.75186 501.692178,374.581855 C501.66004,374.556747 501.631095,374.527802 501.605988,374.495664 L497.631111,369.407822 C497.461106,369.190215 497.499694,368.875993 497.717301,368.705988 C497.805212,368.637308 497.913565,368.6 498.025123,368.6 L505.974877,368.6 Z M502.307822,359.418145 C502.33996,359.443253 502.368905,359.472198 502.394012,359.504336 L506.368889,364.592178 C506.538894,364.809785 506.500306,365.124007 506.282699,365.294012 C506.194788,365.362692 506.086435,365.4 505.974877,365.4 L498.025123,365.4 C497.748981,365.4 497.525123,365.176142 497.525123,364.9 C497.525123,364.788442 497.562431,364.680088 497.631111,364.592178 L501.605988,359.504336 C501.775993,359.286729 502.090215,359.24814 502.307822,359.418145 Z" id="Combined-Shape-Copy-3"></path>
        </g>
    </g>
</svg>