<?xml version="1.0" encoding="UTF-8"?>
<svg width="20px" height="22px" viewBox="0 0 20 22" version="1.1" xmlns="http://www.w3.org/2000/svg" xmlns:xlink="http://www.w3.org/1999/xlink">
    <title>3-2</title>
    <g id="Report" stroke="none" stroke-width="1" fill="none" fill-rule="evenodd">
        <path d="M17.2280938,9.26736344 L17.1785838,9.26736344 L17.1785838,8.05448705 C17.1785838,4.15840592 14.0202253,1 10.1240967,1 C6.22796824,1 3.0696097,4.15840592 3.0696097,8.05448705 L3.0696097,9.26736344 L2.77259711,9.26736344 C1.68347202,9.26736344 0.841896891,10.2326899 0.841896891,11.3465936 L0.841896891,14.4406603 C0.814465038,15.5202624 1.66745826,16.4176962 2.74706038,16.445128 C2.75558842,16.4453649 2.76406908,16.445507 2.77259711,16.4456018 L4.60427735,16.4456018 C4.86371919,16.4334256 5.06417544,16.2131654 5.05195192,15.9537236 C5.05152552,15.9443901 5.05081485,15.9350566 5.04981991,15.9257705 L5.04981991,9.8613886 C5.04981991,9.56437602 4.87655862,9.26731606 4.60427735,9.26731606 L4.0597148,9.26731606 L4.0597148,8.05443967 C4.0597148,4.70519523 6.77485231,1.99005773 10.1240967,1.99005773 C13.4733412,1.99005773 16.1884787,4.70519523 16.1884787,8.05443967 L16.1884787,9.26731606 L15.6439161,9.26731606 C15.3716349,9.26731606 15.1983736,9.56432864 15.1983736,9.8613886 L15.1983736,15.9257705 C15.1707522,16.1840279 15.3577057,16.415801 15.6159631,16.4434224 C15.6252492,16.4444173 15.6345827,16.445128 15.6439161,16.4455544 L16.21321,16.4455544 L16.1637,16.5197957 C15.4209553,17.506916 14.2554569,18.0850695 13.0201234,18.0791947 C12.7496899,16.7531323 11.4554181,15.8973438 10.1293557,16.1678247 C8.99536366,16.3990766 8.17776179,17.3922139 8.16861784,18.5495159 C8.18216794,19.9068952 9.28645399,21 10.6438806,21 C11.3158426,20.9891031 11.9563455,20.7133632 12.4260509,20.2326662 C12.7429622,19.908127 12.9506199,19.4927642 13.0201234,19.0445211 C14.5671093,19.050396 16.0260196,18.3255128 16.9557651,17.0890896 L17.4260864,16.395997 C18.4904328,16.3217557 19.1587466,15.6534419 19.1587466,14.6880681 L19.1587466,11.5940015 C19.1587466,10.5297498 18.3667289,9.26736344 17.2280938,9.26736344 Z M4.0597148,15.4554967 L2.77259711,15.4554967 C2.23959479,15.4425151 1.81802549,14.9999574 1.83100706,14.466955 C1.83124395,14.4581901 1.8315756,14.4494252 1.832002,14.4406129 L1.832002,11.3465463 C1.832002,10.7772524 2.22803457,10.2574212 2.77259711,10.2574212 L4.0597148,10.2574212 L4.0597148,15.4554967 L4.0597148,15.4554967 Z M11.7082744,19.5396684 C11.4339559,19.8371074 11.048536,20.0074312 10.643928,20.0099896 C9.83859701,19.9971976 9.1850651,19.3545626 9.1587702,18.5495633 C9.15843868,17.7430005 9.81201797,17.0889 10.6185808,17.0885683 C11.4251436,17.0882368 12.079244,17.741816 12.0795757,18.5483788 C12.0795757,18.5487579 12.0795757,18.5491843 12.0795757,18.5495633 C12.1001851,18.9170743 11.9654421,19.2763416 11.7082744,19.5396684 Z M18.1686889,14.6881628 C18.1686889,15.3564767 17.5251064,15.4554967 17.2280938,15.4554967 L16.1884787,15.4554967 L16.1884787,10.2574685 L17.2280938,10.2574685 C17.7726563,10.2574685 18.1686889,11.0248024 18.1686889,11.5940962 L18.1686889,14.6881628 Z" id="3-2" stroke="#1AB001" stroke-width="0.2" fill="#FFFFFF" fill-rule="nonzero"></path>
    </g>
</svg>