<?xml version="1.0" encoding="UTF-8"?>
<svg width="20px" height="22px" viewBox="0 0 20 22" version="1.1" xmlns="http://www.w3.org/2000/svg" xmlns:xlink="http://www.w3.org/1999/xlink">
    <title>3-1</title>
    <g id="Report" stroke="none" stroke-width="1" fill="none" fill-rule="evenodd">
        <g id="3-1" transform="translate(0.841253, 1.000000)" fill="#093238" fill-rule="nonzero" stroke="#FFFFFF" stroke-width="0.2">
            <path d="M16.3868404,8.26736344 L16.3373304,8.26736344 L16.3373304,7.05448705 C16.3373304,3.15840592 13.1789719,0 9.28284338,0 C5.38671487,0 2.22835633,3.15840592 2.22835633,7.05448705 L2.22835633,8.26736344 L1.93134375,8.26736344 C0.842218653,8.26736344 0.000643524891,9.23268986 0.000643524891,10.3465936 L0.000643524891,13.4406603 C-0.0267883278,14.5202624 0.826204895,15.4176962 1.90580701,15.445128 C1.91433505,15.4453649 1.92281571,15.445507 1.93134375,15.4456018 L3.76302398,15.4456018 C4.02246582,15.4334256 4.22292207,15.2131654 4.21069855,14.9537236 C4.21027215,14.9443901 4.20956148,14.9350566 4.20856655,14.9257705 L4.20856655,8.8613886 C4.20856655,8.56437602 4.03530526,8.26731606 3.76302398,8.26731606 L3.21846144,8.26731606 L3.21846144,7.05443967 C3.21846144,3.70519523 5.93359894,0.99005773 9.28284338,0.99005773 C12.6320878,0.99005773 15.3472253,3.70519523 15.3472253,7.05443967 L15.3472253,8.26731606 L14.8026628,8.26731606 C14.5303815,8.26731606 14.3571202,8.56432864 14.3571202,8.8613886 L14.3571202,14.9257705 C14.3294988,15.1840279 14.5164524,15.415801 14.7747098,15.4434224 C14.7839958,15.4444173 14.7933293,15.445128 14.8026628,15.4455544 L15.3719566,15.4455544 L15.3224466,15.5197957 C14.579702,16.506916 13.4142036,17.0850695 12.17887,17.0791947 C11.9084365,15.7531323 10.6141647,14.8973438 9.28810234,15.1678247 C8.15411029,15.3990766 7.33650842,16.3922139 7.32736447,17.5495159 C7.34091457,18.9068952 8.44520062,20 9.80262724,20 C10.4745892,19.9891031 11.1150922,19.7133632 11.5847975,19.2326662 C11.9017088,18.908127 12.1093665,18.4927642 12.17887,18.0445211 C13.725856,18.050396 15.1847662,17.3255128 16.1145118,16.0890896 L16.584833,15.395997 C17.6491794,15.3217557 18.3174933,14.6534419 18.3174933,13.6880681 L18.3174933,10.5940015 C18.3174933,9.52974982 17.5254755,8.26736344 16.3868404,8.26736344 Z M3.21846144,14.4554967 L1.93134375,14.4554967 C1.39834143,14.4425151 0.976772128,13.9999574 0.989753695,13.466955 C0.989990585,13.4581901 0.990322231,13.4494252 0.990748633,13.4406129 L0.990748633,10.3465463 C0.990748633,9.77725241 1.3867812,9.25742117 1.93134375,9.25742117 L3.21846144,9.25742117 L3.21846144,14.4554967 L3.21846144,14.4554967 Z M10.867021,18.5396684 C10.5927025,18.8371074 10.2072826,19.0074312 9.80267462,19.0099896 C8.99734365,18.9971976 8.34381174,18.3545626 8.31751683,17.5495633 C8.31718531,16.7430005 8.9707646,16.0889 9.7773274,16.0885683 C10.5838902,16.0882368 11.2379906,16.741816 11.2383223,17.5483788 C11.2383223,17.5487579 11.2383223,17.5491843 11.2383223,17.5495633 C11.2589317,17.9170743 11.1241887,18.2763416 10.867021,18.5396684 Z M17.3274355,13.6881628 C17.3274355,14.3564767 16.683853,14.4554967 16.3868404,14.4554967 L15.3472253,14.4554967 L15.3472253,9.25746855 L16.3868404,9.25746855 C16.931403,9.25746855 17.3274355,10.0248024 17.3274355,10.5940962 L17.3274355,13.6881628 Z" id="Shape"></path>
        </g>
    </g>
</svg>