<?xml version="1.0" encoding="UTF-8"?>
<svg width="20px" height="19px" viewBox="0 0 20 19" version="1.1" xmlns="http://www.w3.org/2000/svg" xmlns:xlink="http://www.w3.org/1999/xlink">
    <title>6-1</title>
    <g id="Report" stroke="none" stroke-width="1" fill="none" fill-rule="evenodd">
        <g id="6-1" transform="translate(1.000000, 0.762779)" fill="#093238" fill-rule="nonzero" stroke="#093238" stroke-width="0.2">
            <path d="M17.5711249,6.99800618 L17.6428163,7.01247288 C17.7367003,7.04473706 17.80624,7.12463694 17.8252404,7.22207501 C18.3531439,9.86232913 17.6712461,12.6002549 15.9666768,14.6844975 C14.2621075,16.7687401 11.7139287,17.9803534 9.02142393,17.9868475 C6.04026226,17.9904955 3.24963698,16.5216917 1.56490773,14.062215 L1.56490773,14.062215 L1.36308542,16.0777107 C1.35355751,16.2157381 1.24218797,16.324763 1.10398921,16.3313523 L1.10398921,16.3313523 L1.07671592,16.3313523 C1.00423601,16.3244702 0.937516475,16.2888941 0.891413018,16.2325454 C0.845309561,16.1761968 0.823649756,16.1037536 0.831256352,16.0313462 L0.831256352,16.0313462 L1.10398921,13.2685624 C1.11934819,13.1297591 1.23707418,13.024983 1.37672206,13.0258301 L1.37672206,13.0258301 L1.40399534,13.0258301 L4.16950648,13.298563 C4.32013267,13.3136256 4.43002866,13.4479429 4.41496604,13.5985691 C4.39990342,13.7491953 4.2655861,13.8590913 4.1149599,13.8440287 L4.1149599,13.8440287 L1.93309708,13.6231151 C4.1609601,16.9889364 8.45730255,18.3105565 12.191727,16.7788252 C15.9261515,15.247094 18.0570399,11.289247 17.2797747,7.32844082 C17.2607743,7.23100276 17.2951998,7.13082967 17.3700834,7.06565579 C17.444967,7.00048191 17.5489322,6.9802087 17.6428163,7.01247288 Z M9.29415679,4.00655467 L9.29415679,5.21748854 L9.42779588,5.21748854 C9.93406192,5.22296668 10.4319728,5.34721086 10.881462,5.58022323 L10.881462,5.58022323 L10.6687304,6.14478024 C10.2070653,5.89965709 9.69137728,5.77401674 9.16869967,5.77931821 C8.16231545,5.77931821 7.70957891,6.38751248 7.70957891,6.99025208 C7.70957891,7.7184488 8.25504462,8.08936548 9.34597603,8.53664736 C10.6496391,9.07120375 11.1951048,9.67394336 11.1951048,10.6939642 C11.1951048,11.7139851 10.4669081,12.4940011 9.33779404,12.6794594 L9.33779404,12.6794594 L9.22597357,12.6985507 L9.22597357,13.9749405 L8.71050848,13.9831224 L8.71050848,12.725824 L8.57686938,12.725824 C7.96517688,12.7189015 7.36500735,12.5585437 6.83137912,12.2594508 L6.83137912,12.2594508 L7.03865609,11.6785298 C7.56292106,11.9811381 8.15700434,12.141879 8.76232772,12.144903 C9.71689271,12.144903 10.3823609,11.580346 10.3823609,10.7812387 C10.3823609,9.89485697 9.62689087,9.46939372 8.88778483,9.16938758 C7.46139201,8.61301256 6.91592631,8.0430009 6.91592631,7.14025515 C6.91592631,6.17750818 7.61139508,5.44112948 8.68323519,5.26658045 L8.68323519,5.26658045 L8.79778299,5.24748915 L8.79778299,4.00655467 L9.29415679,4.00655467 Z M5.55692355,0.685943399 C9.50452362,-0.949141577 14.0576493,0.416733796 16.4533942,3.95473543 L16.4533942,3.95473543 L16.7643096,1.95287628 C16.7880549,1.80475336 16.9269681,1.70361483 17.0752251,1.72650802 C17.223348,1.7502533 17.3244865,1.88916646 17.3015934,2.03742347 L17.3015934,2.03742347 L16.8870394,4.78929796 C16.8654312,4.92268009 16.7494165,5.0201325 16.6143066,5.01839355 L16.6143066,5.01839355 L16.5706693,5.01839355 L13.8269768,4.5929303 C13.7295387,4.5783146 13.6472996,4.51282654 13.6112382,4.42113484 C13.5751767,4.32944315 13.5907715,4.22547797 13.6521481,4.14840198 C13.7135247,4.071326 13.8113586,4.03284888 13.9087967,4.0474646 L13.9087967,4.0474646 L16.0906595,4.38292601 C13.660421,0.648930469 8.74962006,-0.558487053 4.86497525,1.62286953 C1.68283302,3.40264782 0.0048805767,7.0259248 0.70579924,10.6039624 C0.719348639,10.6752294 0.703947218,10.7489579 0.66300139,10.8088412 C0.622055563,10.8687245 0.558939517,10.9098277 0.487612957,10.9230598 C0.470457309,10.9259083 0.452949364,10.9259083 0.435793715,10.9230598 C0.303282575,10.9254698 0.188220229,10.8322693 0.163060862,10.7021462 C-0.64451957,6.50633128 1.60932349,2.32102837 5.55692355,0.685943399 Z" id="Combined-Shape"></path>
        </g>
    </g>
</svg>