<?xml version="1.0" encoding="UTF-8"?>
<svg width="20px" height="19px" viewBox="0 0 20 19" version="1.1" xmlns="http://www.w3.org/2000/svg" xmlns:xlink="http://www.w3.org/1999/xlink">
    <title>6-2</title>
    <g id="Report" stroke="none" stroke-width="1" fill="none" fill-rule="evenodd">
        <path d="M18.5711249,7.76078527 L18.6428163,7.77525197 C18.7367003,7.80751615 18.80624,7.88741603 18.8252404,7.9848541 C19.3531439,10.6251082 18.6712461,13.363034 16.9666768,15.4472766 C15.2621075,17.5315192 12.7139287,18.7431325 10.0214239,18.7496266 C7.04026226,18.7532746 4.24963698,17.2844708 2.56490773,14.8249941 L2.56490773,14.8249941 L2.36308542,16.8404898 C2.35355751,16.9785171 2.24218797,17.0875421 2.10398921,17.0941314 L2.10398921,17.0941314 L2.07671592,17.0941314 C2.00423601,17.0872493 1.93751648,17.0516732 1.89141302,16.9953245 C1.84530956,16.9389758 1.82364976,16.8665327 1.83125635,16.7941253 L1.83125635,16.7941253 L2.10398921,14.0313415 C2.11934819,13.8925382 2.23707418,13.787762 2.37672206,13.7886092 L2.37672206,13.7886092 L2.40399534,13.7886092 L5.16950648,14.0613421 C5.32013267,14.0764047 5.43002866,14.210722 5.41496604,14.3613482 C5.39990342,14.5119744 5.2655861,14.6218704 5.1149599,14.6068078 L5.1149599,14.6068078 L2.93309708,14.3858942 C5.1609601,17.7517155 9.45730255,19.0733356 13.191727,17.5416043 C16.9261515,16.0098731 19.0570399,12.0520261 18.2797747,8.09121991 C18.2607743,7.99378185 18.2951998,7.89360876 18.3700834,7.82843488 C18.444967,7.763261 18.5489322,7.74298779 18.6428163,7.77525197 Z M10.2941568,4.76933376 L10.2941568,5.98026763 L10.4277959,5.98026763 C10.9340619,5.98574577 11.4319728,6.10998995 11.881462,6.34300232 L11.881462,6.34300232 L11.6687304,6.90755933 C11.2070653,6.66243618 10.6913773,6.53679583 10.1686997,6.5420973 C9.16231545,6.5420973 8.70957891,7.15029157 8.70957891,7.75303117 C8.70957891,8.48122789 9.25504462,8.85214457 10.345976,9.29942645 C11.6496391,9.83398284 12.1951048,10.4367224 12.1951048,11.4567433 C12.1951048,12.4767642 11.4669081,13.2567801 10.337794,13.4422385 L10.337794,13.4422385 L10.2259736,13.4613298 L10.2259736,14.7377195 L9.71050848,14.7459015 L9.71050848,13.4886031 L9.57686938,13.4886031 C8.96517688,13.4816806 8.36500735,13.3213228 7.83137912,13.0222299 L7.83137912,13.0222299 L8.03865609,12.4413089 C8.56292106,12.7439172 9.15700434,12.9046581 9.76232772,12.9076821 C10.7168927,12.9076821 11.3823609,12.3431251 11.3823609,11.5440178 C11.3823609,10.6576361 10.6268909,10.2321728 9.88778483,9.93216667 C8.46139201,9.37579165 7.91592631,8.80577999 7.91592631,7.90303424 C7.91592631,6.94028727 8.61139508,6.20390857 9.68323519,6.02935954 L9.68323519,6.02935954 L9.79778299,6.01026824 L9.79778299,4.76933376 L10.2941568,4.76933376 Z M6.55692355,1.44872249 C10.5045236,-0.186362487 15.0576493,1.17951289 17.4533942,4.71751452 L17.4533942,4.71751452 L17.7643096,2.71565537 C17.7880549,2.56753245 17.9269681,2.46639392 18.0752251,2.48928711 C18.223348,2.51303239 18.3244865,2.65194555 18.3015934,2.80020256 L18.3015934,2.80020256 L17.8870394,5.55207705 C17.8654312,5.68545918 17.7494165,5.78291159 17.6143066,5.78117264 L17.6143066,5.78117264 L17.5706693,5.78117264 L14.8269768,5.35570939 C14.7295387,5.34109369 14.6472996,5.27560563 14.6112382,5.18391393 C14.5751767,5.09222224 14.5907715,4.98825706 14.6521481,4.91118107 C14.7135247,4.83410509 14.8113586,4.79562797 14.9087967,4.81024369 L14.9087967,4.81024369 L17.0906595,5.1457051 C14.660421,1.41170956 9.74962006,0.204292037 5.86497525,2.38564862 C2.68283302,4.16542691 1.00488058,7.78870389 1.70579924,11.3667415 C1.71934864,11.4380084 1.70394722,11.511737 1.66300139,11.5716203 C1.62205556,11.6315036 1.55893952,11.6726068 1.48761296,11.6858389 C1.47045731,11.6886874 1.45294936,11.6886874 1.43579372,11.6858389 C1.30328258,11.6882489 1.18822023,11.5950484 1.16306086,11.4649253 C0.35548043,7.26911037 2.60932349,3.08380746 6.55692355,1.44872249 Z" id="6-2" stroke="#FFFFFF" stroke-width="0.2" fill="#FFFFFF" fill-rule="nonzero"></path>
    </g>
</svg>